<mxfile host="app.diagrams.net" modified="2023-12-11T17:33:39.580Z" agent="Mozilla/5.0 (Windows NT 10.0; Win64; x64) AppleWebKit/537.36 (KHTML, like Gecko) Chrome/119.0.0.0 Safari/537.36 OPR/105.0.0.0" etag="eWXK6LocGIibvyiGR-At" version="22.1.7" type="github">
  <diagram name="第 1 页" id="dkbjO_-mOB0W7OMfRSGr">
    <mxGraphModel dx="1971" dy="1059" grid="1" gridSize="10" guides="1" tooltips="1" connect="1" arrows="1" fold="1" page="1" pageScale="1" pageWidth="827" pageHeight="1169" math="0" shadow="0">
      <root>
        <mxCell id="0" />
        <mxCell id="1" parent="0" />
        <mxCell id="yflG1nEBupmecDav7C_1-1" value="Start Main" style="rounded=1;whiteSpace=wrap;html=1;arcSize=50;" parent="1" vertex="1">
          <mxGeometry x="354" y="20" width="120" height="60" as="geometry" />
        </mxCell>
        <mxCell id="yflG1nEBupmecDav7C_1-15" style="edgeStyle=orthogonalEdgeStyle;rounded=0;orthogonalLoop=1;jettySize=auto;html=1;entryX=0.5;entryY=0;entryDx=0;entryDy=0;" parent="1" target="yflG1nEBupmecDav7C_1-14" edge="1">
          <mxGeometry relative="1" as="geometry">
            <mxPoint x="414" y="301" as="sourcePoint" />
          </mxGeometry>
        </mxCell>
        <mxCell id="yflG1nEBupmecDav7C_1-25" style="edgeStyle=orthogonalEdgeStyle;rounded=0;orthogonalLoop=1;jettySize=auto;html=1;entryX=0;entryY=0.5;entryDx=0;entryDy=0;" parent="1" source="yflG1nEBupmecDav7C_1-2" target="yflG1nEBupmecDav7C_1-24" edge="1">
          <mxGeometry relative="1" as="geometry">
            <Array as="points">
              <mxPoint x="150" y="270" />
              <mxPoint x="150" y="700" />
            </Array>
          </mxGeometry>
        </mxCell>
        <mxCell id="yflG1nEBupmecDav7C_1-26" value="0" style="edgeLabel;html=1;align=center;verticalAlign=middle;resizable=0;points=[];" parent="yflG1nEBupmecDav7C_1-25" vertex="1" connectable="0">
          <mxGeometry x="-0.8538" y="2" relative="1" as="geometry">
            <mxPoint as="offset" />
          </mxGeometry>
        </mxCell>
        <mxCell id="yflG1nEBupmecDav7C_1-2" value="Input&lt;br&gt;Command" style="shape=parallelogram;perimeter=parallelogramPerimeter;whiteSpace=wrap;html=1;fixedSize=1;" parent="1" vertex="1">
          <mxGeometry x="354" y="240" width="120" height="60" as="geometry" />
        </mxCell>
        <mxCell id="yflG1nEBupmecDav7C_1-4" value="Case 1&lt;br&gt;(Build 2 BSTs)" style="shape=process;whiteSpace=wrap;html=1;backgroundOutline=1;" parent="1" vertex="1">
          <mxGeometry x="234" y="451" width="120" height="60" as="geometry" />
        </mxCell>
        <mxCell id="yflG1nEBupmecDav7C_1-5" value="Case 2&lt;br&gt;(Query by Number of graduates, Query by School Name)" style="shape=process;whiteSpace=wrap;html=1;backgroundOutline=1;" parent="1" vertex="1">
          <mxGeometry x="414" y="451" width="256" height="60" as="geometry" />
        </mxCell>
        <mxCell id="yflG1nEBupmecDav7C_1-7" style="edgeStyle=orthogonalEdgeStyle;rounded=0;orthogonalLoop=1;jettySize=auto;html=1;entryX=0.5;entryY=1;entryDx=0;entryDy=0;exitX=1;exitY=0.5;exitDx=0;exitDy=0;entryPerimeter=0;" parent="1" source="yflG1nEBupmecDav7C_1-2" target="yflG1nEBupmecDav7C_1-10" edge="1">
          <mxGeometry relative="1" as="geometry">
            <Array as="points">
              <mxPoint x="650" y="270" />
              <mxPoint x="650" y="250" />
            </Array>
          </mxGeometry>
        </mxCell>
        <mxCell id="yflG1nEBupmecDav7C_1-8" value="Command doesn&#39;t exist" style="edgeLabel;html=1;align=center;verticalAlign=middle;resizable=0;points=[];" parent="yflG1nEBupmecDav7C_1-7" vertex="1" connectable="0">
          <mxGeometry x="0.1151" y="1" relative="1" as="geometry">
            <mxPoint x="-8" y="21" as="offset" />
          </mxGeometry>
        </mxCell>
        <mxCell id="yflG1nEBupmecDav7C_1-10" value="Command&lt;br&gt;Error" style="strokeWidth=2;html=1;shape=mxgraph.flowchart.display;whiteSpace=wrap;" parent="1" vertex="1">
          <mxGeometry x="600" y="190" width="100" height="60" as="geometry" />
        </mxCell>
        <mxCell id="yflG1nEBupmecDav7C_1-16" style="edgeStyle=orthogonalEdgeStyle;rounded=0;orthogonalLoop=1;jettySize=auto;html=1;entryX=0.5;entryY=0;entryDx=0;entryDy=0;" parent="1" source="yflG1nEBupmecDav7C_1-14" target="yflG1nEBupmecDav7C_1-4" edge="1">
          <mxGeometry relative="1" as="geometry">
            <Array as="points">
              <mxPoint x="294" y="391" />
            </Array>
          </mxGeometry>
        </mxCell>
        <mxCell id="yflG1nEBupmecDav7C_1-22" style="edgeStyle=orthogonalEdgeStyle;rounded=0;orthogonalLoop=1;jettySize=auto;html=1;entryX=0.494;entryY=-0.003;entryDx=0;entryDy=0;entryPerimeter=0;" parent="1" source="yflG1nEBupmecDav7C_1-14" target="yflG1nEBupmecDav7C_1-5" edge="1">
          <mxGeometry relative="1" as="geometry">
            <Array as="points">
              <mxPoint x="540" y="391" />
              <mxPoint x="540" y="451" />
            </Array>
          </mxGeometry>
        </mxCell>
        <mxCell id="yflG1nEBupmecDav7C_1-14" value="Case 1&lt;br&gt;or&lt;br&gt;Case 2?" style="rhombus;whiteSpace=wrap;html=1;" parent="1" vertex="1">
          <mxGeometry x="347" y="351" width="134" height="80" as="geometry" />
        </mxCell>
        <mxCell id="yflG1nEBupmecDav7C_1-20" style="edgeStyle=orthogonalEdgeStyle;rounded=0;orthogonalLoop=1;jettySize=auto;html=1;entryX=0.5;entryY=0;entryDx=0;entryDy=0;" parent="1" source="yflG1nEBupmecDav7C_1-18" target="yflG1nEBupmecDav7C_1-2" edge="1">
          <mxGeometry relative="1" as="geometry" />
        </mxCell>
        <mxCell id="yflG1nEBupmecDav7C_1-18" value="Menu" style="strokeWidth=2;html=1;shape=mxgraph.flowchart.display;whiteSpace=wrap;" parent="1" vertex="1">
          <mxGeometry x="364" y="130" width="100" height="60" as="geometry" />
        </mxCell>
        <mxCell id="yflG1nEBupmecDav7C_1-19" style="edgeStyle=orthogonalEdgeStyle;rounded=0;orthogonalLoop=1;jettySize=auto;html=1;entryX=0.5;entryY=0;entryDx=0;entryDy=0;entryPerimeter=0;" parent="1" source="yflG1nEBupmecDav7C_1-1" target="yflG1nEBupmecDav7C_1-18" edge="1">
          <mxGeometry relative="1" as="geometry" />
        </mxCell>
        <mxCell id="yflG1nEBupmecDav7C_1-21" style="edgeStyle=orthogonalEdgeStyle;rounded=0;orthogonalLoop=1;jettySize=auto;html=1;entryX=1;entryY=0.5;entryDx=0;entryDy=0;entryPerimeter=0;" parent="1" source="yflG1nEBupmecDav7C_1-10" target="yflG1nEBupmecDav7C_1-18" edge="1">
          <mxGeometry relative="1" as="geometry">
            <Array as="points">
              <mxPoint x="650" y="160" />
            </Array>
          </mxGeometry>
        </mxCell>
        <mxCell id="yflG1nEBupmecDav7C_1-28" style="edgeStyle=orthogonalEdgeStyle;rounded=0;orthogonalLoop=1;jettySize=auto;html=1;entryX=0.5;entryY=0;entryDx=0;entryDy=0;" parent="1" source="yflG1nEBupmecDav7C_1-23" target="yflG1nEBupmecDav7C_1-27" edge="1">
          <mxGeometry relative="1" as="geometry" />
        </mxCell>
        <mxCell id="yflG1nEBupmecDav7C_1-23" value="Start Case 1" style="rounded=1;whiteSpace=wrap;html=1;arcSize=50;" parent="1" vertex="1">
          <mxGeometry x="956" y="20" width="120" height="60" as="geometry" />
        </mxCell>
        <mxCell id="yflG1nEBupmecDav7C_1-24" value="End Main" style="rounded=1;whiteSpace=wrap;html=1;" parent="1" vertex="1">
          <mxGeometry x="354" y="670" width="120" height="60" as="geometry" />
        </mxCell>
        <mxCell id="yflG1nEBupmecDav7C_1-30" style="edgeStyle=orthogonalEdgeStyle;rounded=0;orthogonalLoop=1;jettySize=auto;html=1;entryX=0.5;entryY=0;entryDx=0;entryDy=0;" parent="1" source="yflG1nEBupmecDav7C_1-27" target="yflG1nEBupmecDav7C_1-29" edge="1">
          <mxGeometry relative="1" as="geometry" />
        </mxCell>
        <mxCell id="yflG1nEBupmecDav7C_1-27" value="Clear all previous data" style="rounded=0;whiteSpace=wrap;html=1;" parent="1" vertex="1">
          <mxGeometry x="956" y="130" width="120" height="60" as="geometry" />
        </mxCell>
        <mxCell id="yflG1nEBupmecDav7C_1-32" style="edgeStyle=orthogonalEdgeStyle;rounded=0;orthogonalLoop=1;jettySize=auto;html=1;entryX=0.5;entryY=0;entryDx=0;entryDy=0;" parent="1" source="yflG1nEBupmecDav7C_1-29" target="yflG1nEBupmecDav7C_1-31" edge="1">
          <mxGeometry relative="1" as="geometry" />
        </mxCell>
        <mxCell id="yflG1nEBupmecDav7C_1-29" value="Read data from the given file" style="rounded=0;whiteSpace=wrap;html=1;" parent="1" vertex="1">
          <mxGeometry x="956" y="250" width="120" height="60" as="geometry" />
        </mxCell>
        <mxCell id="yflG1nEBupmecDav7C_1-35" style="edgeStyle=orthogonalEdgeStyle;rounded=0;orthogonalLoop=1;jettySize=auto;html=1;entryX=0.5;entryY=0;entryDx=0;entryDy=0;" parent="1" source="yflG1nEBupmecDav7C_1-31" target="yflG1nEBupmecDav7C_1-34" edge="1">
          <mxGeometry relative="1" as="geometry" />
        </mxCell>
        <mxCell id="yflG1nEBupmecDav7C_1-31" value="Insert all data to 2 BSTs&lt;br&gt;(BST::insert)" style="shape=process;whiteSpace=wrap;html=1;backgroundOutline=1;" parent="1" vertex="1">
          <mxGeometry x="925" y="361" width="181" height="60" as="geometry" />
        </mxCell>
        <mxCell id="yflG1nEBupmecDav7C_1-34" value="Calculate the Heights of 2 BSTs" style="shape=process;whiteSpace=wrap;html=1;backgroundOutline=1;" parent="1" vertex="1">
          <mxGeometry x="890" y="490" width="251" height="60" as="geometry" />
        </mxCell>
        <mxCell id="yflG1nEBupmecDav7C_1-41" style="edgeStyle=orthogonalEdgeStyle;rounded=0;orthogonalLoop=1;jettySize=auto;html=1;entryX=0.5;entryY=0;entryDx=0;entryDy=0;" parent="1" source="yflG1nEBupmecDav7C_1-36" target="yflG1nEBupmecDav7C_1-40" edge="1">
          <mxGeometry relative="1" as="geometry" />
        </mxCell>
        <mxCell id="yflG1nEBupmecDav7C_1-36" value="Print the Heights of 2 BSTs" style="strokeWidth=2;html=1;shape=mxgraph.flowchart.display;whiteSpace=wrap;" parent="1" vertex="1">
          <mxGeometry x="930.5" y="640" width="171" height="60" as="geometry" />
        </mxCell>
        <mxCell id="yflG1nEBupmecDav7C_1-37" style="edgeStyle=orthogonalEdgeStyle;rounded=0;orthogonalLoop=1;jettySize=auto;html=1;entryX=0.5;entryY=0;entryDx=0;entryDy=0;entryPerimeter=0;" parent="1" source="yflG1nEBupmecDav7C_1-34" target="yflG1nEBupmecDav7C_1-36" edge="1">
          <mxGeometry relative="1" as="geometry" />
        </mxCell>
        <mxCell id="yflG1nEBupmecDav7C_1-38" style="edgeStyle=orthogonalEdgeStyle;rounded=0;orthogonalLoop=1;jettySize=auto;html=1;entryX=0.5;entryY=0;entryDx=0;entryDy=0;entryPerimeter=0;" parent="1" source="yflG1nEBupmecDav7C_1-4" target="yflG1nEBupmecDav7C_1-18" edge="1">
          <mxGeometry relative="1" as="geometry">
            <Array as="points">
              <mxPoint x="294" y="590" />
              <mxPoint x="730" y="590" />
              <mxPoint x="730" y="110" />
              <mxPoint x="414" y="110" />
            </Array>
          </mxGeometry>
        </mxCell>
        <mxCell id="yflG1nEBupmecDav7C_1-39" style="edgeStyle=orthogonalEdgeStyle;rounded=0;orthogonalLoop=1;jettySize=auto;html=1;entryX=0.5;entryY=0;entryDx=0;entryDy=0;entryPerimeter=0;" parent="1" source="yflG1nEBupmecDav7C_1-5" target="yflG1nEBupmecDav7C_1-18" edge="1">
          <mxGeometry relative="1" as="geometry">
            <Array as="points">
              <mxPoint x="542" y="590" />
              <mxPoint x="730" y="590" />
              <mxPoint x="730" y="110" />
              <mxPoint x="414" y="110" />
            </Array>
          </mxGeometry>
        </mxCell>
        <mxCell id="yflG1nEBupmecDav7C_1-40" value="End Case 1" style="rounded=1;whiteSpace=wrap;html=1;arcSize=50;" parent="1" vertex="1">
          <mxGeometry x="956" y="780" width="120" height="60" as="geometry" />
        </mxCell>
        <mxCell id="Kf8flDY_paGvGZ01KVV_-2" style="edgeStyle=orthogonalEdgeStyle;rounded=0;orthogonalLoop=1;jettySize=auto;html=1;exitX=0.5;exitY=1;exitDx=0;exitDy=0;entryX=0.5;entryY=0;entryDx=0;entryDy=0;" parent="1" source="yflG1nEBupmecDav7C_1-43" edge="1">
          <mxGeometry relative="1" as="geometry">
            <mxPoint x="414" y="1300" as="targetPoint" />
          </mxGeometry>
        </mxCell>
        <mxCell id="yflG1nEBupmecDav7C_1-43" value="BST::insert" style="rounded=1;whiteSpace=wrap;html=1;arcSize=50;" parent="1" vertex="1">
          <mxGeometry x="354" y="1220" width="120" height="60" as="geometry" />
        </mxCell>
        <mxCell id="Kf8flDY_paGvGZ01KVV_-26" style="edgeStyle=orthogonalEdgeStyle;rounded=0;orthogonalLoop=1;jettySize=auto;html=1;exitX=0.5;exitY=1;exitDx=0;exitDy=0;entryX=0.5;entryY=0;entryDx=0;entryDy=0;" parent="1" source="yflG1nEBupmecDav7C_1-44" target="Kf8flDY_paGvGZ01KVV_-25" edge="1">
          <mxGeometry relative="1" as="geometry" />
        </mxCell>
        <mxCell id="yflG1nEBupmecDav7C_1-44" value="BST::queryAll" style="rounded=1;whiteSpace=wrap;html=1;arcSize=50;" parent="1" vertex="1">
          <mxGeometry x="810.5" y="1210" width="120" height="60" as="geometry" />
        </mxCell>
        <mxCell id="yflG1nEBupmecDav7C_1-45" value="BST::queryAllLowerBound" style="rounded=1;whiteSpace=wrap;html=1;arcSize=50;" parent="1" vertex="1">
          <mxGeometry x="1300" y="1330" width="191" height="60" as="geometry" />
        </mxCell>
        <mxCell id="yflG1nEBupmecDav7C_1-69" style="edgeStyle=orthogonalEdgeStyle;rounded=0;orthogonalLoop=1;jettySize=auto;html=1;entryX=0.5;entryY=0;entryDx=0;entryDy=0;" parent="1" source="yflG1nEBupmecDav7C_1-47" target="yflG1nEBupmecDav7C_1-59" edge="1">
          <mxGeometry relative="1" as="geometry" />
        </mxCell>
        <mxCell id="yflG1nEBupmecDav7C_1-47" value="Start Case 2" style="rounded=1;whiteSpace=wrap;html=1;arcSize=50;" parent="1" vertex="1">
          <mxGeometry x="1346" y="20" width="120" height="60" as="geometry" />
        </mxCell>
        <mxCell id="yflG1nEBupmecDav7C_1-80" style="edgeStyle=orthogonalEdgeStyle;rounded=0;orthogonalLoop=1;jettySize=auto;html=1;entryX=0.5;entryY=0;entryDx=0;entryDy=0;" parent="1" source="yflG1nEBupmecDav7C_1-54" target="yflG1nEBupmecDav7C_1-58" edge="1">
          <mxGeometry relative="1" as="geometry" />
        </mxCell>
        <mxCell id="yflG1nEBupmecDav7C_1-54" value="query all data not less than the key&lt;br&gt;( key = number of graduates )" style="shape=process;whiteSpace=wrap;html=1;backgroundOutline=1;" parent="1" vertex="1">
          <mxGeometry x="1268" y="580" width="251" height="60" as="geometry" />
        </mxCell>
        <mxCell id="yflG1nEBupmecDav7C_1-58" value="End Case 2" style="rounded=1;whiteSpace=wrap;html=1;arcSize=50;" parent="1" vertex="1">
          <mxGeometry x="1479" y="780" width="120" height="60" as="geometry" />
        </mxCell>
        <mxCell id="yflG1nEBupmecDav7C_1-67" style="edgeStyle=orthogonalEdgeStyle;rounded=0;orthogonalLoop=1;jettySize=auto;html=1;entryX=0.5;entryY=0;entryDx=0;entryDy=0;" parent="1" source="yflG1nEBupmecDav7C_1-59" target="yflG1nEBupmecDav7C_1-66" edge="1">
          <mxGeometry relative="1" as="geometry">
            <Array as="points">
              <mxPoint x="1510" y="170" />
            </Array>
          </mxGeometry>
        </mxCell>
        <mxCell id="yflG1nEBupmecDav7C_1-68" value="No" style="edgeLabel;html=1;align=center;verticalAlign=middle;resizable=0;points=[];" parent="yflG1nEBupmecDav7C_1-67" vertex="1" connectable="0">
          <mxGeometry x="-0.0833" y="-1" relative="1" as="geometry">
            <mxPoint as="offset" />
          </mxGeometry>
        </mxCell>
        <mxCell id="yflG1nEBupmecDav7C_1-59" value="Is dataset empty?" style="rhombus;whiteSpace=wrap;html=1;" parent="1" vertex="1">
          <mxGeometry x="1333" y="130" width="146" height="80" as="geometry" />
        </mxCell>
        <mxCell id="yflG1nEBupmecDav7C_1-61" style="edgeStyle=orthogonalEdgeStyle;rounded=0;orthogonalLoop=1;jettySize=auto;html=1;entryX=0;entryY=0.5;entryDx=0;entryDy=0;" parent="1" source="yflG1nEBupmecDav7C_1-60" target="yflG1nEBupmecDav7C_1-58" edge="1">
          <mxGeometry relative="1" as="geometry" />
        </mxCell>
        <mxCell id="yflG1nEBupmecDav7C_1-60" value="Request user&lt;br&gt;run case 1 first" style="strokeWidth=2;html=1;shape=mxgraph.flowchart.display;whiteSpace=wrap;" parent="1" vertex="1">
          <mxGeometry x="1180" y="780" width="100" height="60" as="geometry" />
        </mxCell>
        <mxCell id="yflG1nEBupmecDav7C_1-62" style="edgeStyle=orthogonalEdgeStyle;rounded=0;orthogonalLoop=1;jettySize=auto;html=1;entryX=0.5;entryY=0;entryDx=0;entryDy=0;entryPerimeter=0;" parent="1" source="yflG1nEBupmecDav7C_1-59" target="yflG1nEBupmecDav7C_1-60" edge="1">
          <mxGeometry relative="1" as="geometry" />
        </mxCell>
        <mxCell id="yflG1nEBupmecDav7C_1-63" value="Yes" style="edgeLabel;html=1;align=center;verticalAlign=middle;resizable=0;points=[];" parent="yflG1nEBupmecDav7C_1-62" vertex="1" connectable="0">
          <mxGeometry x="-0.9212" y="1" relative="1" as="geometry">
            <mxPoint as="offset" />
          </mxGeometry>
        </mxCell>
        <mxCell id="yflG1nEBupmecDav7C_1-71" style="edgeStyle=orthogonalEdgeStyle;rounded=0;orthogonalLoop=1;jettySize=auto;html=1;" parent="1" source="yflG1nEBupmecDav7C_1-66" edge="1">
          <mxGeometry relative="1" as="geometry">
            <mxPoint x="1395" y="470" as="targetPoint" />
            <Array as="points">
              <mxPoint x="1395" y="311" />
              <mxPoint x="1395" y="440" />
            </Array>
          </mxGeometry>
        </mxCell>
        <mxCell id="yflG1nEBupmecDav7C_1-75" value="number of graduates" style="edgeLabel;html=1;align=center;verticalAlign=middle;resizable=0;points=[];" parent="yflG1nEBupmecDav7C_1-71" vertex="1" connectable="0">
          <mxGeometry x="-0.1615" y="1" relative="1" as="geometry">
            <mxPoint as="offset" />
          </mxGeometry>
        </mxCell>
        <mxCell id="yflG1nEBupmecDav7C_1-73" style="edgeStyle=orthogonalEdgeStyle;rounded=0;orthogonalLoop=1;jettySize=auto;html=1;" parent="1" source="yflG1nEBupmecDav7C_1-66" edge="1">
          <mxGeometry relative="1" as="geometry">
            <mxPoint x="1695" y="470" as="targetPoint" />
            <Array as="points">
              <mxPoint x="1695" y="311" />
            </Array>
          </mxGeometry>
        </mxCell>
        <mxCell id="yflG1nEBupmecDav7C_1-74" value="School name" style="edgeLabel;html=1;align=center;verticalAlign=middle;resizable=0;points=[];" parent="yflG1nEBupmecDav7C_1-73" vertex="1" connectable="0">
          <mxGeometry x="0.1417" relative="1" as="geometry">
            <mxPoint as="offset" />
          </mxGeometry>
        </mxCell>
        <mxCell id="yflG1nEBupmecDav7C_1-66" value="What to query by ?" style="rhombus;whiteSpace=wrap;html=1;" parent="1" vertex="1">
          <mxGeometry x="1400" y="271" width="220" height="80" as="geometry" />
        </mxCell>
        <mxCell id="yflG1nEBupmecDav7C_1-81" style="edgeStyle=orthogonalEdgeStyle;rounded=0;orthogonalLoop=1;jettySize=auto;html=1;entryX=0.5;entryY=0;entryDx=0;entryDy=0;" parent="1" source="yflG1nEBupmecDav7C_1-70" target="yflG1nEBupmecDav7C_1-58" edge="1">
          <mxGeometry relative="1" as="geometry">
            <Array as="points">
              <mxPoint x="1693" y="710" />
              <mxPoint x="1540" y="710" />
              <mxPoint x="1540" y="780" />
            </Array>
          </mxGeometry>
        </mxCell>
        <mxCell id="yflG1nEBupmecDav7C_1-70" value="query all data equal to the key&lt;br&gt;( key = school name )" style="shape=process;whiteSpace=wrap;html=1;backgroundOutline=1;" parent="1" vertex="1">
          <mxGeometry x="1577.5" y="580" width="230" height="60" as="geometry" />
        </mxCell>
        <mxCell id="yflG1nEBupmecDav7C_1-77" style="edgeStyle=orthogonalEdgeStyle;rounded=0;orthogonalLoop=1;jettySize=auto;html=1;entryX=0.5;entryY=0;entryDx=0;entryDy=0;" parent="1" source="yflG1nEBupmecDav7C_1-76" target="yflG1nEBupmecDav7C_1-54" edge="1">
          <mxGeometry relative="1" as="geometry" />
        </mxCell>
        <mxCell id="yflG1nEBupmecDav7C_1-76" value="Input the key value&lt;br&gt;for querying" style="shape=parallelogram;perimeter=parallelogramPerimeter;whiteSpace=wrap;html=1;fixedSize=1;" parent="1" vertex="1">
          <mxGeometry x="1321" y="470" width="145" height="60" as="geometry" />
        </mxCell>
        <mxCell id="yflG1nEBupmecDav7C_1-79" style="edgeStyle=orthogonalEdgeStyle;rounded=0;orthogonalLoop=1;jettySize=auto;html=1;entryX=0.5;entryY=0;entryDx=0;entryDy=0;" parent="1" source="yflG1nEBupmecDav7C_1-78" target="yflG1nEBupmecDav7C_1-70" edge="1">
          <mxGeometry relative="1" as="geometry" />
        </mxCell>
        <mxCell id="yflG1nEBupmecDav7C_1-78" value="Input the key value&lt;br&gt;for querying" style="shape=parallelogram;perimeter=parallelogramPerimeter;whiteSpace=wrap;html=1;fixedSize=1;" parent="1" vertex="1">
          <mxGeometry x="1620" y="470" width="145" height="60" as="geometry" />
        </mxCell>
        <mxCell id="Kf8flDY_paGvGZ01KVV_-12" style="edgeStyle=orthogonalEdgeStyle;rounded=0;orthogonalLoop=1;jettySize=auto;html=1;exitX=0.5;exitY=1;exitDx=0;exitDy=0;entryX=0.5;entryY=0;entryDx=0;entryDy=0;" parent="1" source="Kf8flDY_paGvGZ01KVV_-3" target="Kf8flDY_paGvGZ01KVV_-11" edge="1">
          <mxGeometry relative="1" as="geometry" />
        </mxCell>
        <mxCell id="Kf8flDY_paGvGZ01KVV_-3" value="建立新的節點並存入資料" style="rounded=0;whiteSpace=wrap;html=1;" parent="1" vertex="1">
          <mxGeometry x="328" y="1300" width="170" height="60" as="geometry" />
        </mxCell>
        <mxCell id="Kf8flDY_paGvGZ01KVV_-16" style="edgeStyle=orthogonalEdgeStyle;rounded=0;orthogonalLoop=1;jettySize=auto;html=1;exitX=0;exitY=0.5;exitDx=0;exitDy=0;entryX=0.5;entryY=0;entryDx=0;entryDy=0;" parent="1" source="Kf8flDY_paGvGZ01KVV_-10" target="Kf8flDY_paGvGZ01KVV_-14" edge="1">
          <mxGeometry relative="1" as="geometry" />
        </mxCell>
        <mxCell id="Kf8flDY_paGvGZ01KVV_-17" style="edgeStyle=orthogonalEdgeStyle;rounded=0;orthogonalLoop=1;jettySize=auto;html=1;exitX=1;exitY=0.5;exitDx=0;exitDy=0;" parent="1" source="Kf8flDY_paGvGZ01KVV_-10" target="Kf8flDY_paGvGZ01KVV_-15" edge="1">
          <mxGeometry relative="1" as="geometry" />
        </mxCell>
        <mxCell id="Kf8flDY_paGvGZ01KVV_-10" value="插入的數據大於等於&lt;br&gt;或小於目前數據?" style="rhombus;whiteSpace=wrap;html=1;" parent="1" vertex="1">
          <mxGeometry x="324" y="1500" width="180" height="90" as="geometry" />
        </mxCell>
        <mxCell id="Kf8flDY_paGvGZ01KVV_-13" style="edgeStyle=orthogonalEdgeStyle;rounded=0;orthogonalLoop=1;jettySize=auto;html=1;exitX=0.5;exitY=1;exitDx=0;exitDy=0;entryX=0.5;entryY=0;entryDx=0;entryDy=0;" parent="1" source="Kf8flDY_paGvGZ01KVV_-11" target="Kf8flDY_paGvGZ01KVV_-10" edge="1">
          <mxGeometry relative="1" as="geometry" />
        </mxCell>
        <mxCell id="ZS3SpelObpLnG2sDS9vO-3" style="edgeStyle=orthogonalEdgeStyle;rounded=0;orthogonalLoop=1;jettySize=auto;html=1;entryX=0;entryY=0.5;entryDx=0;entryDy=0;" edge="1" parent="1" source="Kf8flDY_paGvGZ01KVV_-11" target="Kf8flDY_paGvGZ01KVV_-21">
          <mxGeometry relative="1" as="geometry">
            <Array as="points">
              <mxPoint x="190" y="1430" />
              <mxPoint x="190" y="1760" />
            </Array>
          </mxGeometry>
        </mxCell>
        <mxCell id="Kf8flDY_paGvGZ01KVV_-11" value="當目前節點不為空" style="shape=hexagon;perimeter=hexagonPerimeter2;whiteSpace=wrap;html=1;fixedSize=1;" parent="1" vertex="1">
          <mxGeometry x="336.5" y="1390" width="153" height="80" as="geometry" />
        </mxCell>
        <mxCell id="ZS3SpelObpLnG2sDS9vO-2" style="edgeStyle=orthogonalEdgeStyle;rounded=0;orthogonalLoop=1;jettySize=auto;html=1;entryX=1;entryY=0.5;entryDx=0;entryDy=0;" edge="1" parent="1" source="Kf8flDY_paGvGZ01KVV_-14" target="Kf8flDY_paGvGZ01KVV_-11">
          <mxGeometry relative="1" as="geometry">
            <Array as="points">
              <mxPoint x="304" y="1690" />
              <mxPoint x="640" y="1690" />
              <mxPoint x="640" y="1430" />
            </Array>
          </mxGeometry>
        </mxCell>
        <mxCell id="Kf8flDY_paGvGZ01KVV_-14" value="移動到左子樹中" style="whiteSpace=wrap;html=1;" parent="1" vertex="1">
          <mxGeometry x="244" y="1610" width="120" height="60" as="geometry" />
        </mxCell>
        <mxCell id="ZS3SpelObpLnG2sDS9vO-1" style="edgeStyle=orthogonalEdgeStyle;rounded=0;orthogonalLoop=1;jettySize=auto;html=1;entryX=1;entryY=0.5;entryDx=0;entryDy=0;" edge="1" parent="1" source="Kf8flDY_paGvGZ01KVV_-15" target="Kf8flDY_paGvGZ01KVV_-11">
          <mxGeometry relative="1" as="geometry">
            <Array as="points">
              <mxPoint x="524" y="1690" />
              <mxPoint x="640" y="1690" />
              <mxPoint x="640" y="1430" />
            </Array>
          </mxGeometry>
        </mxCell>
        <mxCell id="Kf8flDY_paGvGZ01KVV_-15" value="移動到右子樹中" style="whiteSpace=wrap;html=1;" parent="1" vertex="1">
          <mxGeometry x="464" y="1610" width="120" height="60" as="geometry" />
        </mxCell>
        <mxCell id="Kf8flDY_paGvGZ01KVV_-18" value="大於等於" style="text;html=1;align=center;verticalAlign=middle;resizable=0;points=[];autosize=1;strokeColor=none;fillColor=none;" parent="1" vertex="1">
          <mxGeometry x="530" y="1570" width="70" height="30" as="geometry" />
        </mxCell>
        <mxCell id="Kf8flDY_paGvGZ01KVV_-20" value="小於" style="text;html=1;align=center;verticalAlign=middle;resizable=0;points=[];autosize=1;strokeColor=none;fillColor=none;" parent="1" vertex="1">
          <mxGeometry x="240" y="1570" width="50" height="30" as="geometry" />
        </mxCell>
        <mxCell id="Kf8flDY_paGvGZ01KVV_-24" style="edgeStyle=orthogonalEdgeStyle;rounded=0;orthogonalLoop=1;jettySize=auto;html=1;exitX=0.5;exitY=1;exitDx=0;exitDy=0;entryX=0.5;entryY=0;entryDx=0;entryDy=0;" parent="1" source="Kf8flDY_paGvGZ01KVV_-21" edge="1">
          <mxGeometry relative="1" as="geometry">
            <mxPoint x="414" y="1820" as="targetPoint" />
          </mxGeometry>
        </mxCell>
        <mxCell id="Kf8flDY_paGvGZ01KVV_-21" value="新的節點放到目前位置" style="whiteSpace=wrap;html=1;" parent="1" vertex="1">
          <mxGeometry x="340.5" y="1730" width="147" height="60" as="geometry" />
        </mxCell>
        <mxCell id="Kf8flDY_paGvGZ01KVV_-32" style="edgeStyle=orthogonalEdgeStyle;rounded=0;orthogonalLoop=1;jettySize=auto;html=1;exitX=0.5;exitY=1;exitDx=0;exitDy=0;entryX=0.5;entryY=0;entryDx=0;entryDy=0;" parent="1" source="Kf8flDY_paGvGZ01KVV_-25" target="Kf8flDY_paGvGZ01KVV_-31" edge="1">
          <mxGeometry relative="1" as="geometry" />
        </mxCell>
        <mxCell id="ZS3SpelObpLnG2sDS9vO-4" value="否" style="edgeLabel;html=1;align=center;verticalAlign=middle;resizable=0;points=[];" vertex="1" connectable="0" parent="Kf8flDY_paGvGZ01KVV_-32">
          <mxGeometry x="-0.1264" y="-3" relative="1" as="geometry">
            <mxPoint x="-7" y="2" as="offset" />
          </mxGeometry>
        </mxCell>
        <mxCell id="Kf8flDY_paGvGZ01KVV_-46" style="edgeStyle=orthogonalEdgeStyle;rounded=0;orthogonalLoop=1;jettySize=auto;html=1;exitX=1;exitY=0.5;exitDx=0;exitDy=0;entryX=1;entryY=0.5;entryDx=0;entryDy=0;" parent="1" source="Kf8flDY_paGvGZ01KVV_-25" target="Kf8flDY_paGvGZ01KVV_-28" edge="1">
          <mxGeometry relative="1" as="geometry">
            <Array as="points">
              <mxPoint x="990" y="1330" />
              <mxPoint x="990" y="1790" />
            </Array>
          </mxGeometry>
        </mxCell>
        <mxCell id="Kf8flDY_paGvGZ01KVV_-25" value="目前節點為空?" style="rhombus;whiteSpace=wrap;html=1;" parent="1" vertex="1">
          <mxGeometry x="795.5" y="1290" width="150" height="80" as="geometry" />
        </mxCell>
        <mxCell id="Kf8flDY_paGvGZ01KVV_-27" value="End BST::insert" style="rounded=1;whiteSpace=wrap;html=1;arcSize=50;" parent="1" vertex="1">
          <mxGeometry x="354" y="1820" width="120" height="60" as="geometry" />
        </mxCell>
        <mxCell id="Kf8flDY_paGvGZ01KVV_-28" value="End BST::queryAll" style="rounded=1;whiteSpace=wrap;html=1;arcSize=50;" parent="1" vertex="1">
          <mxGeometry x="815.5" y="1760" width="124.5" height="60" as="geometry" />
        </mxCell>
        <mxCell id="Kf8flDY_paGvGZ01KVV_-30" value="是" style="text;html=1;align=center;verticalAlign=middle;resizable=0;points=[];autosize=1;strokeColor=none;fillColor=none;" parent="1" vertex="1">
          <mxGeometry x="940" y="1300" width="40" height="30" as="geometry" />
        </mxCell>
        <mxCell id="Kf8flDY_paGvGZ01KVV_-35" style="edgeStyle=orthogonalEdgeStyle;rounded=0;orthogonalLoop=1;jettySize=auto;html=1;exitX=0.5;exitY=1;exitDx=0;exitDy=0;entryX=0.5;entryY=0;entryDx=0;entryDy=0;" parent="1" source="Kf8flDY_paGvGZ01KVV_-31" target="Kf8flDY_paGvGZ01KVV_-33" edge="1">
          <mxGeometry relative="1" as="geometry" />
        </mxCell>
        <mxCell id="Kf8flDY_paGvGZ01KVV_-50" style="edgeStyle=orthogonalEdgeStyle;rounded=0;orthogonalLoop=1;jettySize=auto;html=1;exitX=1;exitY=0;exitDx=0;exitDy=0;entryX=1;entryY=0.5;entryDx=0;entryDy=0;" parent="1" source="Kf8flDY_paGvGZ01KVV_-31" target="Kf8flDY_paGvGZ01KVV_-37" edge="1">
          <mxGeometry relative="1" as="geometry">
            <Array as="points">
              <mxPoint x="1020" y="1412" />
              <mxPoint x="1020" y="1620" />
            </Array>
          </mxGeometry>
        </mxCell>
        <mxCell id="Kf8flDY_paGvGZ01KVV_-52" style="edgeStyle=orthogonalEdgeStyle;rounded=0;orthogonalLoop=1;jettySize=auto;html=1;exitX=1;exitY=1;exitDx=0;exitDy=0;entryX=1;entryY=0.5;entryDx=0;entryDy=0;" parent="1" source="Kf8flDY_paGvGZ01KVV_-31" target="Kf8flDY_paGvGZ01KVV_-47" edge="1">
          <mxGeometry relative="1" as="geometry">
            <Array as="points">
              <mxPoint x="910" y="1435" />
              <mxPoint x="1050" y="1435" />
              <mxPoint x="1050" y="1700" />
            </Array>
          </mxGeometry>
        </mxCell>
        <mxCell id="Kf8flDY_paGvGZ01KVV_-31" value="當前資料&lt;br&gt;與輸入資料的關係?" style="rhombus;whiteSpace=wrap;html=1;" parent="1" vertex="1">
          <mxGeometry x="790" y="1390" width="160" height="90" as="geometry" />
        </mxCell>
        <mxCell id="Kf8flDY_paGvGZ01KVV_-38" style="edgeStyle=orthogonalEdgeStyle;rounded=0;orthogonalLoop=1;jettySize=auto;html=1;exitX=0.5;exitY=1;exitDx=0;exitDy=0;entryX=0.5;entryY=0;entryDx=0;entryDy=0;" parent="1" source="Kf8flDY_paGvGZ01KVV_-33" target="Kf8flDY_paGvGZ01KVV_-37" edge="1">
          <mxGeometry relative="1" as="geometry" />
        </mxCell>
        <mxCell id="Kf8flDY_paGvGZ01KVV_-33" value="將當前資料放進答案集中" style="rounded=0;whiteSpace=wrap;html=1;" parent="1" vertex="1">
          <mxGeometry x="800" y="1510" width="140" height="60" as="geometry" />
        </mxCell>
        <mxCell id="Kf8flDY_paGvGZ01KVV_-36" value="等於" style="text;html=1;align=center;verticalAlign=middle;resizable=0;points=[];autosize=1;strokeColor=none;fillColor=none;" parent="1" vertex="1">
          <mxGeometry x="875" y="1477" width="50" height="30" as="geometry" />
        </mxCell>
        <mxCell id="Kf8flDY_paGvGZ01KVV_-39" style="edgeStyle=orthogonalEdgeStyle;rounded=0;orthogonalLoop=1;jettySize=auto;html=1;exitX=0;exitY=0.5;exitDx=0;exitDy=0;entryX=0;entryY=0.5;entryDx=0;entryDy=0;" parent="1" source="Kf8flDY_paGvGZ01KVV_-37" target="yflG1nEBupmecDav7C_1-44" edge="1">
          <mxGeometry relative="1" as="geometry">
            <Array as="points">
              <mxPoint x="750" y="1620" />
              <mxPoint x="750" y="1240" />
            </Array>
          </mxGeometry>
        </mxCell>
        <mxCell id="Kf8flDY_paGvGZ01KVV_-37" value="遞迴查詢左子樹" style="rounded=0;whiteSpace=wrap;html=1;" parent="1" vertex="1">
          <mxGeometry x="800.5" y="1590" width="140" height="60" as="geometry" />
        </mxCell>
        <mxCell id="Kf8flDY_paGvGZ01KVV_-48" style="edgeStyle=orthogonalEdgeStyle;rounded=0;orthogonalLoop=1;jettySize=auto;html=1;exitX=0;exitY=0.5;exitDx=0;exitDy=0;entryX=0;entryY=0.5;entryDx=0;entryDy=0;" parent="1" source="Kf8flDY_paGvGZ01KVV_-47" target="yflG1nEBupmecDav7C_1-44" edge="1">
          <mxGeometry relative="1" as="geometry">
            <Array as="points">
              <mxPoint x="720" y="1700" />
              <mxPoint x="720" y="1240" />
            </Array>
          </mxGeometry>
        </mxCell>
        <mxCell id="Kf8flDY_paGvGZ01KVV_-47" value="遞迴查詢右子樹" style="rounded=0;whiteSpace=wrap;html=1;" parent="1" vertex="1">
          <mxGeometry x="800.5" y="1670" width="140" height="60" as="geometry" />
        </mxCell>
        <mxCell id="Kf8flDY_paGvGZ01KVV_-51" value="小於" style="text;html=1;align=center;verticalAlign=middle;resizable=0;points=[];autosize=1;strokeColor=none;fillColor=none;" parent="1" vertex="1">
          <mxGeometry x="920" y="1380" width="50" height="30" as="geometry" />
        </mxCell>
        <mxCell id="Kf8flDY_paGvGZ01KVV_-53" value="大於" style="text;html=1;align=center;verticalAlign=middle;resizable=0;points=[];autosize=1;strokeColor=none;fillColor=none;" parent="1" vertex="1">
          <mxGeometry x="1056" y="1580" width="50" height="30" as="geometry" />
        </mxCell>
        <mxCell id="Kf8flDY_paGvGZ01KVV_-54" style="edgeStyle=orthogonalEdgeStyle;rounded=0;orthogonalLoop=1;jettySize=auto;html=1;exitX=0.5;exitY=1;exitDx=0;exitDy=0;entryX=0.5;entryY=0;entryDx=0;entryDy=0;" parent="1" target="Kf8flDY_paGvGZ01KVV_-58" edge="1">
          <mxGeometry relative="1" as="geometry">
            <mxPoint x="1391.5" y="1390" as="sourcePoint" />
          </mxGeometry>
        </mxCell>
        <mxCell id="Kf8flDY_paGvGZ01KVV_-56" style="edgeStyle=orthogonalEdgeStyle;rounded=0;orthogonalLoop=1;jettySize=auto;html=1;exitX=0.5;exitY=1;exitDx=0;exitDy=0;entryX=0.5;entryY=0;entryDx=0;entryDy=0;" parent="1" source="Kf8flDY_paGvGZ01KVV_-58" target="Kf8flDY_paGvGZ01KVV_-64" edge="1">
          <mxGeometry relative="1" as="geometry" />
        </mxCell>
        <mxCell id="ZS3SpelObpLnG2sDS9vO-5" value="否" style="edgeLabel;html=1;align=center;verticalAlign=middle;resizable=0;points=[];" vertex="1" connectable="0" parent="Kf8flDY_paGvGZ01KVV_-56">
          <mxGeometry x="-0.5549" y="2" relative="1" as="geometry">
            <mxPoint x="13" y="-2" as="offset" />
          </mxGeometry>
        </mxCell>
        <mxCell id="Kf8flDY_paGvGZ01KVV_-57" style="edgeStyle=orthogonalEdgeStyle;rounded=0;orthogonalLoop=1;jettySize=auto;html=1;exitX=1;exitY=0.5;exitDx=0;exitDy=0;entryX=1;entryY=0.5;entryDx=0;entryDy=0;" parent="1" source="Kf8flDY_paGvGZ01KVV_-58" target="Kf8flDY_paGvGZ01KVV_-59" edge="1">
          <mxGeometry relative="1" as="geometry">
            <Array as="points">
              <mxPoint x="1511" y="1450" />
              <mxPoint x="1511" y="1910" />
            </Array>
          </mxGeometry>
        </mxCell>
        <mxCell id="Kf8flDY_paGvGZ01KVV_-58" value="目前節點為空?" style="rhombus;whiteSpace=wrap;html=1;" parent="1" vertex="1">
          <mxGeometry x="1316.5" y="1410" width="150" height="80" as="geometry" />
        </mxCell>
        <mxCell id="Kf8flDY_paGvGZ01KVV_-59" value="End BST::queryAllLowerBound" style="rounded=1;whiteSpace=wrap;html=1;arcSize=50;" parent="1" vertex="1">
          <mxGeometry x="1293" y="1880" width="201" height="60" as="geometry" />
        </mxCell>
        <mxCell id="Kf8flDY_paGvGZ01KVV_-60" value="是" style="text;html=1;align=center;verticalAlign=middle;resizable=0;points=[];autosize=1;strokeColor=none;fillColor=none;" parent="1" vertex="1">
          <mxGeometry x="1461" y="1420" width="40" height="30" as="geometry" />
        </mxCell>
        <mxCell id="Kf8flDY_paGvGZ01KVV_-61" style="edgeStyle=orthogonalEdgeStyle;rounded=0;orthogonalLoop=1;jettySize=auto;html=1;exitX=0.5;exitY=1;exitDx=0;exitDy=0;entryX=0.5;entryY=0;entryDx=0;entryDy=0;" parent="1" source="Kf8flDY_paGvGZ01KVV_-64" target="Kf8flDY_paGvGZ01KVV_-66" edge="1">
          <mxGeometry relative="1" as="geometry" />
        </mxCell>
        <mxCell id="Kf8flDY_paGvGZ01KVV_-79" style="edgeStyle=orthogonalEdgeStyle;rounded=0;orthogonalLoop=1;jettySize=auto;html=1;exitX=1;exitY=0.5;exitDx=0;exitDy=0;entryX=1;entryY=0.5;entryDx=0;entryDy=0;" parent="1" source="Kf8flDY_paGvGZ01KVV_-64" target="Kf8flDY_paGvGZ01KVV_-71" edge="1">
          <mxGeometry relative="1" as="geometry">
            <Array as="points">
              <mxPoint x="1540" y="1555" />
              <mxPoint x="1540" y="1820" />
            </Array>
          </mxGeometry>
        </mxCell>
        <mxCell id="Kf8flDY_paGvGZ01KVV_-64" value="當前資料&lt;br&gt;與輸入資料的關係?" style="rhombus;whiteSpace=wrap;html=1;" parent="1" vertex="1">
          <mxGeometry x="1311" y="1510" width="160" height="90" as="geometry" />
        </mxCell>
        <mxCell id="Kf8flDY_paGvGZ01KVV_-65" style="edgeStyle=orthogonalEdgeStyle;rounded=0;orthogonalLoop=1;jettySize=auto;html=1;exitX=0.5;exitY=1;exitDx=0;exitDy=0;entryX=0.5;entryY=0;entryDx=0;entryDy=0;" parent="1" source="Kf8flDY_paGvGZ01KVV_-66" target="Kf8flDY_paGvGZ01KVV_-69" edge="1">
          <mxGeometry relative="1" as="geometry" />
        </mxCell>
        <mxCell id="Kf8flDY_paGvGZ01KVV_-66" value="將當前資料放進答案集中" style="rounded=0;whiteSpace=wrap;html=1;" parent="1" vertex="1">
          <mxGeometry x="1321" y="1630" width="140" height="60" as="geometry" />
        </mxCell>
        <mxCell id="Kf8flDY_paGvGZ01KVV_-67" value="小於等於" style="text;html=1;align=center;verticalAlign=middle;resizable=0;points=[];autosize=1;strokeColor=none;fillColor=none;" parent="1" vertex="1">
          <mxGeometry x="1396" y="1596" width="70" height="30" as="geometry" />
        </mxCell>
        <mxCell id="Kf8flDY_paGvGZ01KVV_-77" style="edgeStyle=orthogonalEdgeStyle;rounded=0;orthogonalLoop=1;jettySize=auto;html=1;exitX=0;exitY=0.5;exitDx=0;exitDy=0;entryX=0;entryY=0.5;entryDx=0;entryDy=0;" parent="1" source="Kf8flDY_paGvGZ01KVV_-69" target="yflG1nEBupmecDav7C_1-45" edge="1">
          <mxGeometry relative="1" as="geometry">
            <mxPoint x="1270" y="1360" as="targetPoint" />
            <Array as="points">
              <mxPoint x="1270" y="1740" />
              <mxPoint x="1270" y="1360" />
            </Array>
          </mxGeometry>
        </mxCell>
        <mxCell id="Kf8flDY_paGvGZ01KVV_-69" value="遞迴查詢左子樹" style="rounded=0;whiteSpace=wrap;html=1;" parent="1" vertex="1">
          <mxGeometry x="1321.5" y="1710" width="140" height="60" as="geometry" />
        </mxCell>
        <mxCell id="Kf8flDY_paGvGZ01KVV_-78" style="edgeStyle=orthogonalEdgeStyle;rounded=0;orthogonalLoop=1;jettySize=auto;html=1;exitX=0;exitY=0.5;exitDx=0;exitDy=0;" parent="1" source="Kf8flDY_paGvGZ01KVV_-71" edge="1">
          <mxGeometry relative="1" as="geometry">
            <mxPoint x="1300" y="1360" as="targetPoint" />
            <Array as="points">
              <mxPoint x="1230" y="1820" />
              <mxPoint x="1230" y="1360" />
            </Array>
          </mxGeometry>
        </mxCell>
        <mxCell id="Kf8flDY_paGvGZ01KVV_-71" value="遞迴查詢右子樹" style="rounded=0;whiteSpace=wrap;html=1;" parent="1" vertex="1">
          <mxGeometry x="1321.5" y="1790" width="140" height="60" as="geometry" />
        </mxCell>
        <mxCell id="Kf8flDY_paGvGZ01KVV_-80" value="大於" style="text;html=1;align=center;verticalAlign=middle;resizable=0;points=[];autosize=1;strokeColor=none;fillColor=none;" parent="1" vertex="1">
          <mxGeometry x="1540" y="1680" width="50" height="30" as="geometry" />
        </mxCell>
      </root>
    </mxGraphModel>
  </diagram>
</mxfile>
